<mxfile host="app.diagrams.net" modified="2023-12-17T11:09:51.106Z" agent="Mozilla/5.0 (Windows NT 10.0; Win64; x64) AppleWebKit/537.36 (KHTML, like Gecko) Chrome/120.0.0.0 Safari/537.36" version="22.1.11" etag="c6EACSBph2OSs9CsGbqr" type="github">
  <diagram name="Page-1" id="zJ-A-r7r0jwqMof9inGL">
    <mxGraphModel>
      <root>
        <mxCell id="0" />
        <mxCell id="1" parent="0" />
      </root>
    </mxGraphModel>
  </diagram>
</mxfile>
